<?xml version="1.0" encoding="utf-8"?>
<!-- Generator: Adobe Illustrator 22.0.1, SVG Export Plug-In . SVG Version: 6.00 Build 0)  -->
<svg version="1.1" id="Layer_1" xmlns="http://www.w3.org/2000/svg" xmlns:xlink="http://www.w3.org/1999/xlink" x="0px" y="0px"
	 viewBox="0 0 217.5 34" style="enable-background:new 0 0 217.5 34;" xml:space="preserve">
<style type="text/css">
	.st0{fill:#0A1F8F;}
	.st1{fill:#3CB4E5;}
</style>
<title>Asset 1</title>
<g>
	<path class="st0" d="M111.2,26c-0.8,1.4-2.3,2.4-4,2.4c-2.5,0-4.6-2.1-4.6-4.6c0-2.5,2.1-4.6,4.6-4.6c1.7,0,3.3,1,4,2.4h5.8
		c-1-4.5-5-7.9-9.8-7.9c-5.5,0-10.1,4.5-10.1,10.1c0,5.5,4.5,10.1,10.1,10.1c4.8,0,8.9-3.4,9.8-7.9H111.2z"/>
	<path class="st1" d="M11.8,22.9c-5.9,0-10.7-4.8-10.7-10.7c0-5.9,4.8-10.7,10.7-10.7c5.9,0,10.7,4.8,10.7,10.7
		C22.5,18.1,17.7,22.9,11.8,22.9z M11.8,7.3c-2.7,0-4.9,2.2-4.9,4.9c0,2.7,2.2,4.9,4.9,4.9c2.7,0,4.9-2.2,4.9-4.9
		C16.6,9.5,14.4,7.3,11.8,7.3z"/>
	<path class="st1" d="M43.8,34h-5.8v-9.6c0-2.7-2.2-4.9-4.9-4.9c-2.7,0-4.9,2.2-4.9,4.9V34h-5.8v-9.6c0-5.9,4.8-10.7,10.7-10.7
		c5.9,0,10.7,4.8,10.7,10.7V34z"/>
	<path class="st0" d="M88.9,13.8v1.1c-1.4-0.7-2.9-1.1-4.6-1.1c-5.6,0-10.1,4.5-10.1,10.1c0,5.5,4.5,10.1,10.1,10.1
		c1.6,0,3.2-0.4,4.6-1.1V34h5.5V13.8H88.9z M84.3,28.4c-2.5,0-4.6-2.1-4.6-4.6c0-2.5,2.1-4.6,4.6-4.6c2.5,0,4.6,2.1,4.6,4.6
		C88.9,26.3,86.9,28.4,84.3,28.4z"/>
	<path class="st0" d="M71.1,16.1H55.3v-2.2c0-3.4,2.8-6.2,6.2-6.2h9.6V1.5h-9.6c-6.9,0-12.4,5.6-12.4,12.4V34h6.2V22.3h15.8V16.1z"
		/>
	<path class="st0" d="M132.1,28.7c-0.8,0.5-1.8,0.8-2.8,0.8c-3,0-5.5-2.5-5.5-5.5c0-3,2.5-5.5,5.5-5.5c2.1,0,3.9,1.2,4.8,2.9h-2.8
		c-3.7,0-4.2,2.8-4.2,4.5h3.9l0,0h8.2c0.1-0.6,0.2-1.2,0.2-1.8c0-5.6-4.6-10.2-10.2-10.2c-5.6,0-10.2,4.6-10.2,10.2
		c0,5.6,4.6,10.2,10.2,10.2c3.9,0,7.3-2.2,9-5.5H132.1z"/>
	<g>
		<path class="st0" d="M161.7,19.8c0.2-1.3-0.5-1.8-2.2-1.8c-1.3,0-2.1,0.5-2.5,1.2c-0.2,0.4-0.1,0.8,0.2,1.1
			c0.3,0.3,0.9,0.5,1.6,0.7l2.1,0.5c1.8,0.4,3.2,1,4.1,1.8c0.9,0.8,1.1,1.8,0.8,3l-0.4,1.2c-1,2.3-2.7,4-5,5.1
			c-2.3,1-4.8,1.6-7.5,1.6c-2.5,0-4.4-0.6-5.7-1.8c-1.1-1.1-1.4-2.4-1-4.1l0.2-0.7h6.6c-0.2,0.8,0,1.4,0.5,1.7
			c0.5,0.3,1.1,0.4,1.8,0.4c1.3,0,2.3-0.4,2.9-1c0.2-0.2,0.4-0.5,0.4-0.8l0,0c0.1-0.4-0.1-0.8-0.5-1c-0.4-0.2-1.3-0.5-2.8-0.9
			c-2.1-0.5-3.6-1.1-4.6-1.8c-1-0.7-1.3-1.8-1-3.3l0.3-0.8l0.2-0.6c0.5-1.1,1.3-2.1,2.4-3c1.1-0.9,2.4-1.6,4-2.1
			c1.6-0.5,3.3-0.8,5.2-0.8c2.3,0,4.1,0.5,5.4,1.4c1.2,0.9,1.5,2.4,0.9,4.7H161.7z"/>
		<path class="st0" d="M214.2,20c0.1-0.6,0.1-1.1,0.1-1.7c0-0.1,0-0.2,0-0.2l0,0c0-0.1,0-0.1,0-0.2l0,0c-0.1-1.1-0.8-2.1-1.9-2.9
			c-0.7-0.5-1.4-0.8-2.3-1c-0.9-0.2-1.9-0.3-3.1-0.3c-1.7,0-3.5,0.4-5.5,1.1c-1.9,0.7-3.7,1.9-5.4,3.4c-1.7,1.5-3,3.5-4,5.8
			c0,0-0.2,0.3-0.4,1.1c-0.3,0.8-0.3,1.2-0.3,1.2c-0.3,1.2-0.3,2.3-0.1,3.3c0.2,1,0.7,1.8,1.3,2.5c1.3,1.4,3.5,2,6.4,2
			c0.5,0,0.9,0,1.4-0.1c0.5-0.1,0.9-0.1,1.4-0.2c1-0.2,1.8-0.4,2.6-0.8c1.8-0.7,3.4-1.7,4.7-2.9c1.3-1.2,2.4-2.6,3.3-4.1h-6.6
			c-1.3,2.2-3,3.3-5,3.3c-1.6,0-2.5-0.6-2.6-1.8c0-0.2,0-0.3,0-0.3c0.2-1.7,0.8-3.1,1.1-3.9c0,0,0,0,0,0c0-0.1,0.1-0.1,0.1-0.2
			c0.6-1.3,1.4-2.3,2.3-3.2c1.1-1.1,2.3-1.6,3.6-1.6c0.6,0,1.2,0.2,1.8,0.5c0.2,0.1,0.4,0.2,0.5,0.4c0.2,0.2,0.2,0.4,0.3,0.7
			c0,0.4,0,0.9-0.2,1.6h6.5c0.1-0.3,0.1-0.6,0.2-0.8l0,0C214.1,20.5,214.2,20.2,214.2,20z"/>
		<path class="st0" d="M191.4,20.1c0-0.3,0.1-0.6,0.1-0.9c0.1-1.4-0.4-2.5-1.2-3.2c-0.5-0.6-1.2-1-2-1.3c-0.5-0.2-1.1-0.4-1.7-0.5
			c-1.1-0.2-1.9-0.2-1.9-0.2h-1.3h-9l-8.6,19.9h8.9c2.2,0,4.3-0.3,6.4-1c2-0.7,3.8-1.8,5.3-3.3c1.6-1.6,3-3.6,4-6l0.3-0.7
			c0.1-0.2,0.2-0.4,0.2-0.7l0.1-0.5C191.2,21.1,191.3,20.6,191.4,20.1z M184.2,22c-0.1,0.6-0.4,1.2-0.6,1.9
			c-1.9,4.4-4.1,5.4-7.4,5.4h-1.5l4.6-10.6h1.2c1.6,0,2.8-0.1,3.4,0.5C184.5,19.8,184.5,20.8,184.2,22z"/>
	</g>
</g>
</svg>
